<svg width="30" height="30" viewBox="0 0 30 30" fill="none" xmlns="http://www.w3.org/2000/svg">
<path d="M19.425 14.1125L12.35 7.04998C12.2338 6.93282 12.0955 6.83983 11.9432 6.77637C11.7909 6.71291 11.6275 6.68024 11.4625 6.68024C11.2975 6.68024 11.1341 6.71291 10.9818 6.77637C10.8294 6.83983 10.6912 6.93282 10.575 7.04998C10.3422 7.28419 10.2115 7.601 10.2115 7.93123C10.2115 8.26147 10.3422 8.57828 10.575 8.81249L16.7625 15.0625L10.575 21.25C10.3422 21.4842 10.2115 21.801 10.2115 22.1312C10.2115 22.4615 10.3422 22.7783 10.575 23.0125C10.6907 23.1306 10.8288 23.2246 10.9811 23.2889C11.1335 23.3533 11.2971 23.3868 11.4625 23.3875C11.6279 23.3868 11.7915 23.3533 11.9438 23.2889C12.0962 23.2246 12.2342 23.1306 12.35 23.0125L19.425 15.95C19.5519 15.8329 19.6531 15.6909 19.7224 15.5327C19.7916 15.3746 19.8274 15.2039 19.8274 15.0312C19.8274 14.8586 19.7916 14.6879 19.7224 14.5297C19.6531 14.3716 19.5519 14.2295 19.425 14.1125Z" fill="black"/>
</svg>
