<svg width="10" height="18" viewBox="0 0 10 18" fill="none" xmlns="http://www.w3.org/2000/svg">
<path d="M9.42498 8.11248L2.34998 1.04998C2.23377 0.932824 2.09552 0.839832 1.9432 0.776371C1.79087 0.71291 1.62749 0.680237 1.46248 0.680237C1.29746 0.680237 1.13408 0.71291 0.981756 0.776371C0.829432 0.839832 0.691181 0.932824 0.574977 1.04998C0.342164 1.28419 0.211487 1.601 0.211487 1.93123C0.211487 2.26147 0.342164 2.57828 0.574977 2.81249L6.76248 9.06249L0.574977 15.25C0.342164 15.4842 0.211487 15.801 0.211487 16.1312C0.211487 16.4615 0.342164 16.7783 0.574977 17.0125C0.690746 17.1306 0.828802 17.2246 0.981146 17.2889C1.13349 17.3533 1.29709 17.3868 1.46248 17.3875C1.62786 17.3868 1.79146 17.3533 1.94381 17.2889C2.09615 17.2246 2.23421 17.1306 2.34998 17.0125L9.42498 9.94999C9.55186 9.83293 9.65312 9.69087 9.72238 9.53274C9.79164 9.37462 9.82739 9.20386 9.82739 9.03123C9.82739 8.85861 9.79164 8.68785 9.72238 8.52973C9.65312 8.3716 9.55186 8.22954 9.42498 8.11248Z" fill="black"/>
</svg>
